<svg width="512" height="512" viewBox="0 0 512 512" fill="none" xmlns="http://www.w3.org/2000/svg">
<path fill-rule="evenodd" clip-rule="evenodd" d="M255.5 71.8192C203.753 71.8192 161.804 113.808 161.804 165.605C161.804 217.401 203.753 259.39 255.5 259.39C307.247 259.39 349.196 217.401 349.196 165.605C349.196 113.808 307.247 71.8192 255.5 71.8192ZM146 165.605C146 105.072 195.025 56 255.5 56C315.975 56 365 105.072 365 165.605C365 223.478 320.189 270.875 263.402 274.928V448.09C263.402 452.459 259.864 456 255.5 456C251.136 456 247.598 452.459 247.598 448.09V274.928C190.811 270.875 146 223.478 146 165.605Z" fill="black"/>
</svg>
